<svg width="240" height="240" viewBox="0 0 240 240" fill="none" xmlns="http://www.w3.org/2000/svg">
<path d="M170.001 60C186.57 60 200.001 73.4315 200.001 90V100H210.004C211.825 100 213.533 100.487 215.004 101.338C217.993 103.067 220.004 106.299 220.004 110V130C220.004 133.701 217.993 136.933 215.004 138.662C213.533 139.513 211.825 140 210.004 140H200.001V150C200.001 166.569 186.57 180 170.001 180H49.9976C33.4291 180 19.9976 166.569 19.9976 150V90C19.9976 73.4315 33.4291 60 49.9976 60H170.001ZM169.982 75H49.9976C42.2006 75 35.7931 80.9489 35.0662 88.5554L34.9976 90V150C34.9976 157.797 40.9464 164.204 48.553 164.931L49.9976 165H169.982C177.779 165 184.187 159.051 184.914 151.445L184.982 150V90C184.982 82.203 179.033 75.7955 171.427 75.0687L169.982 75ZM59.9976 90H130.001C135.129 90 139.356 93.8604 139.934 98.8338L140.001 100V140C140.001 145.128 136.141 149.355 131.167 149.933L130.001 150H59.9976C54.8692 150 50.6425 146.14 50.0648 141.166L49.9976 140V100C49.9976 94.8717 53.858 90.6449 58.8314 90.0673L59.9976 90H130.001H59.9976Z" fill="#0C1E3C"/>
</svg>
