<svg fill="none" height="210" viewBox="0 0 374 210" width="374" xmlns="http://www.w3.org/2000/svg" xmlns:xlink="http://www.w3.org/1999/xlink"><linearGradient id="a" gradientUnits="userSpaceOnUse" x1="122.623" x2="1369.23" y1="-767.812" y2="-162.885"><stop offset=".0728443" stop-color="#3683fc"/><stop offset=".965938" stop-color="#21355c"/></linearGradient><clipPath id="b"><rect height="210" rx="14" width="374"/></clipPath><g clip-path="url(#b)"><rect fill="url(#a)" height="210" rx="14" width="374"/><g fill="#fff"><path d="m283.781 120.686c3.202-3.957 9.236-3.957 12.438 0l27.156 33.562c1.862 2.302 4.843 3.387 7.749 2.821l42.375-8.255c4.997-.973 9.62 2.906 9.529 7.995l-.771 43.166c-.053 2.959 1.533 5.707 4.123 7.141l37.768 20.915c4.453 2.466 5.501 8.409 2.16 12.249l-28.337 32.572c-1.943 2.233-2.494 5.357-1.432 8.12l15.488 40.299c1.826 4.751-1.191 9.978-6.219 10.772l-42.644 6.736c-2.924.462-5.354 2.501-6.317 5.301l-14.039 40.826c-1.655 4.813-7.326 6.877-11.688 4.254l-36.997-22.25c-2.537-1.526-5.709-1.526-8.246 0l-36.997 22.25c-4.362 2.623-10.033.559-11.688-4.254l-14.039-40.826c-.963-2.8-3.393-4.839-6.317-5.301l-42.644-6.736c-5.028-.794-8.045-6.021-6.219-10.772l15.488-40.299c1.062-2.763.511-5.887-1.432-8.12l-28.337-32.572c-3.341-3.84-2.293-9.783 2.16-12.249l37.768-20.915c2.59-1.434 4.176-4.182 4.123-7.141l-.771-43.166c-.091-5.089 4.532-8.968 9.529-7.995l42.375 8.255c2.906.566 5.887-.519 7.749-2.821z" opacity=".1"/><path d="m53.3904 3.84316c1.601-1.97861 4.6182-1.97861 6.2192.00001l9.5612 11.81673c.931 1.1507 2.4214 1.6932 3.8744 1.4101l14.9199-2.9063c2.4982-.4866 4.8096 1.4529 4.7641 3.9976l-.2713 15.198c-.0264 1.4799.7666 2.8535 2.0615 3.5706l13.2976 7.364c2.226 1.233 2.75 4.2045 1.08 6.1247l-9.9771 11.4679c-.9715 1.1167-1.247 2.6787-.7159 4.0604l5.453 14.1885c.913 2.3758-.596 4.9889-3.11 5.386l-15.0138 2.3719c-1.4621.2309-2.6771 1.2504-3.1584 2.6502l-4.943 14.3745c-.8277 2.407-3.663 3.439-5.8442 2.127l-13.0261-7.8342c-1.2685-.7629-2.8545-.7629-4.123 0l-13.0261 7.8342c-2.1812 1.312-5.0165.28-5.8442-2.127l-4.943-14.3745c-.4813-1.3998-1.6963-2.4193-3.1584-2.6502l-15.0142-2.3719c-2.51397-.3971-4.02261-3.0102-3.10955-5.386l5.45295-14.1885c.5311-1.3817.2556-2.9437-.7159-4.0605l-9.97694-11.4678c-1.67055-1.9202-1.1466-4.8917 1.07995-6.1247l13.29749-7.364c1.2949-.7171 2.0879-2.0907 2.0615-3.5706l-.2713-15.198c-.0455-2.5447 2.2659-4.4842 4.7641-3.9976l14.9199 2.9063c1.4529.2831 2.9434-.2594 3.8744-1.4101z" opacity=".1"/></g></g></svg>