<svg fill="none" height="36" viewBox="0 0 36 36" width="36" xmlns="http://www.w3.org/2000/svg" xmlns:xlink="http://www.w3.org/1999/xlink"><linearGradient id="a" gradientUnits="userSpaceOnUse" x1="13.3525" x2="116.856" y1="-94.2187" y2="-66.017"><stop offset=".0728443" stop-color="#3683fc"/><stop offset=".965938" stop-color="#21355c"/></linearGradient><path d="m15.375 16.5c-.6213 0-1.125.5037-1.125 1.125s.5037 1.125 1.125 1.125h5.25c.6213 0 1.125-.5037 1.125-1.125s-.5037-1.125-1.125-1.125zm-10.875-8.625c0-1.86396 1.51104-3.375 3.375-3.375h20.25c1.8639 0 3.375 1.51104 3.375 3.375v2.25c0 1.1701-.5955 2.2012-1.5 2.8067v12.9433c0 3.1066-2.5184 5.625-5.625 5.625h-12.75c-3.1066 0-5.625-2.5184-5.625-5.625v-12.9433c-.90448-.6055-1.5-1.6366-1.5-2.8067zm3.75 5.625v12.375c0 1.8639 1.51104 3.375 3.375 3.375h12.75c1.8639 0 3.375-1.5111 3.375-3.375v-12.375zm-.375-6.75c-.62131 0-1.125.50369-1.125 1.125v2.25c0 .6213.50369 1.125 1.125 1.125h20.25c.6213 0 1.125-.5037 1.125-1.125v-2.25c0-.62131-.5037-1.125-1.125-1.125z" fill="url(#a)"/></svg>