<svg width="240" height="240" viewBox="0 0 240 240" fill="none" xmlns="http://www.w3.org/2000/svg">
<path d="M147.931 120C147.931 135.426 135.426 147.931 120 147.931C104.574 147.931 92.069 135.426 92.069 120C92.069 104.574 104.574 92.069 120 92.069C135.426 92.069 147.931 104.574 147.931 120Z" fill="#0C1E3C"/>
<path d="M138.621 48.6207C138.621 58.9046 130.284 67.2414 120 67.2414C109.716 67.2414 101.379 58.9046 101.379 48.6207C101.379 38.3368 109.716 30 120 30C130.284 30 138.621 38.3368 138.621 48.6207Z" fill="#0C1E3C"/>
<path d="M138.621 191.379C138.621 201.663 130.284 210 120 210C109.716 210 101.379 201.663 101.379 191.379C101.379 181.095 109.716 172.759 120 172.759C130.284 172.759 138.621 181.095 138.621 191.379Z" fill="#0C1E3C"/>
<path d="M200.69 191.379C200.69 196.521 196.521 200.69 191.379 200.69C186.237 200.69 182.069 196.521 182.069 191.379C182.069 186.237 186.237 182.069 191.379 182.069C196.521 182.069 200.69 186.237 200.69 191.379Z" fill="#0C1E3C"/>
<path d="M57.931 191.379C57.931 196.521 53.7627 200.69 48.6207 200.69C43.4787 200.69 39.3103 196.521 39.3103 191.379C39.3103 186.237 43.4787 182.069 48.6207 182.069C53.7627 182.069 57.931 186.237 57.931 191.379Z" fill="#0C1E3C"/>
<path d="M210 120C210 130.284 201.663 138.621 191.379 138.621C181.095 138.621 172.759 130.284 172.759 120C172.759 109.716 181.095 101.379 191.379 101.379C201.663 101.379 210 109.716 210 120Z" fill="#0C1E3C"/>
<path d="M67.2414 120C67.2414 130.284 58.9046 138.621 48.6207 138.621C38.3368 138.621 30 130.284 30 120C30 109.716 38.3368 101.379 48.6207 101.379C58.9046 101.379 67.2414 109.716 67.2414 120Z" fill="#0C1E3C"/>
<path d="M200.69 48.6207C200.69 53.7627 196.521 57.931 191.379 57.931C186.237 57.931 182.069 53.7627 182.069 48.6207C182.069 43.4787 186.237 39.3103 191.379 39.3103C196.521 39.3103 200.69 43.4787 200.69 48.6207Z" fill="#0C1E3C"/>
<path d="M57.931 48.6207C57.931 53.7627 53.7627 57.931 48.6207 57.931C43.4787 57.931 39.3103 53.7627 39.3103 48.6207C39.3103 43.4787 43.4787 39.3103 48.6207 39.3103C53.7627 39.3103 57.931 43.4787 57.931 48.6207Z" fill="#0C1E3C"/>
</svg>
