<svg width="240" height="240" viewBox="0 0 240 240" fill="none" xmlns="http://www.w3.org/2000/svg">
<path d="M112 164C112 183.882 95.8823 200 76 200C56.1177 200 40 183.882 40 164C40 144.118 56.1177 128 76 128C95.8823 128 112 144.118 112 164Z" fill="#68A2FD"/>
<path fill-rule="evenodd" clip-rule="evenodd" d="M76 132C58.3269 132 44 146.327 44 164C44 181.673 58.3269 196 76 196C93.6731 196 108 181.673 108 164C108 146.327 93.6731 132 76 132ZM36 164C36 141.909 53.9086 124 76 124C98.0914 124 116 141.909 116 164C116 186.091 98.0914 204 76 204C53.9086 204 36 186.091 36 164Z" fill="#3683FC"/>
<path d="M124 64C124 77.2548 113.255 88 100 88C86.7452 88 76 77.2548 76 64C76 50.7452 86.7452 40 100 40C113.255 40 124 50.7452 124 64Z" fill="#68A2FD"/>
<path fill-rule="evenodd" clip-rule="evenodd" d="M100 44C88.9543 44 80 52.9543 80 64C80 75.0457 88.9543 84 100 84C111.046 84 120 75.0457 120 64C120 52.9543 111.046 44 100 44ZM72 64C72 48.536 84.536 36 100 36C115.464 36 128 48.536 128 64C128 79.464 115.464 92 100 92C84.536 92 72 79.464 72 64Z" fill="#3683FC"/>
<path fill-rule="evenodd" clip-rule="evenodd" d="M163 135V104H173V135H204V145H173V176H163V145H132V135H163Z" fill="#3683FC"/>
</svg>
