<svg width="251" height="271" viewBox="0 0 251 271" fill="none" xmlns="http://www.w3.org/2000/svg">
<path d="M167.221 23.4929C170.136 23.4929 172.546 25.658 172.927 28.4685L172.98 29.2498L172.989 84.9123H228.675C231.855 84.9123 234.433 87.4904 234.433 90.6703C234.433 93.5855 232.266 95.9946 229.456 96.3762L228.675 96.4284H172.989L173.005 152.083C173.006 155.263 170.428 157.842 167.248 157.842C164.333 157.842 161.923 155.677 161.542 152.867L161.489 152.085L161.473 96.4284H105.82C102.639 96.4284 100.062 93.8503 100.062 90.6703C100.062 87.7552 102.228 85.346 105.038 84.9645L105.82 84.9123H161.473L161.464 29.2521C161.463 26.072 164.041 23.4929 167.221 23.4929Z" fill="#3683FC" fill-opacity="0.18"/>
<path d="M223.013 9.82965C224.199 9.82965 225.179 10.7104 225.334 11.8536L225.356 12.1715L225.36 34.8138H248.011C249.305 34.8138 250.353 35.8625 250.353 37.1561C250.353 38.3419 249.472 39.3219 248.329 39.4771L248.011 39.4984H225.36L225.366 62.1374C225.366 63.431 224.318 64.4803 223.024 64.4803C221.838 64.4803 220.858 63.5996 220.703 62.4563L220.681 62.1384L220.675 39.4984H198.036C196.743 39.4984 195.694 38.4496 195.694 37.1561C195.694 35.9703 196.575 34.9903 197.718 34.8351L198.036 34.8138H220.675L220.671 12.1724C220.671 10.8788 221.719 9.82965 223.013 9.82965Z" fill="#3683FC" fill-opacity="0.18"/>
<path d="M78.5583 37.9321L91.3736 25.0886L107.935 41.651L87.0951 62.6353C82.5558 67.3965 74.9871 67.4871 70.337 62.836L49.1395 41.6392C25.5101 18.0092 -12.8019 18.0092 -36.4319 41.6392C-60.062 65.2694 -60.062 103.581 -36.4319 127.212L78.5739 242.217L136.102 184.725L158.211 195.747L86.8546 267.061C82.281 271.634 74.8669 271.634 70.2932 267.061L-52.9943 143.773C-85.7714 110.997 -85.7714 57.8541 -52.9943 25.0769C-20.2171 -7.70012 32.9252 -7.70012 65.7024 25.0769L78.5583 37.9321Z" fill="#3683FC" fill-opacity="0.18"/>
</svg>
