<svg fill="none" height="36" viewBox="0 0 36 36" width="36" xmlns="http://www.w3.org/2000/svg"><path clip-rule="evenodd" d="m19.3718 8.15917c-1.1075-1.05909-2.8524-1.05909-3.9599-.00001l-7.16215 6.84884c-.5652.5404-.8849 1.2885-.8849 2.0705v8.6918c0 1.5822 1.28264 2.8648 2.86485 2.8648h14.3243c1.5822 0 2.8648-1.2826 2.8648-2.8648v-8.6918c0-.782-.3197-1.5301-.8849-2.0705zm-5.9399-2.07055c2.2151-2.11816 5.7048-2.11816 7.9199 0l7.1621 6.84878c1.1304 1.081 1.7698 2.577 1.7698 4.1411v8.6918c0 3.1644-2.5653 5.7297-5.7297 5.7297h-14.3243c-3.16442 0-5.7297-2.5653-5.7297-5.7297v-8.6918c0-1.5641.63938-3.0601 1.76979-4.1411z" fill="#3683fc" fill-rule="evenodd"/></svg>