<svg width="240" height="240" viewBox="0 0 240 240" fill="none" xmlns="http://www.w3.org/2000/svg">
<path d="M114.13 128.261C123.855 128.261 131.739 136.145 131.739 145.87V173.261C131.739 182.986 123.855 190.87 114.13 190.87H47.6087C37.8837 190.87 30 182.986 30 173.261V145.87C30 136.145 37.8837 128.261 47.6087 128.261H114.13ZM192.391 128.261C202.116 128.261 210 136.145 210 145.87V173.261C210 182.986 202.116 190.87 192.391 190.87H165C155.275 190.87 147.391 182.986 147.391 173.261V145.87C147.391 136.145 155.275 128.261 165 128.261H192.391ZM114.13 140H47.6087C44.3671 140 41.7391 142.628 41.7391 145.87V173.261C41.7391 176.502 44.3671 179.13 47.6087 179.13H114.13C117.372 179.13 120 176.502 120 173.261V145.87C120 142.628 117.372 140 114.13 140ZM192.391 140H165C161.758 140 159.13 142.628 159.13 145.87V173.261C159.13 176.502 161.758 179.13 165 179.13H192.391C195.633 179.13 198.261 176.502 198.261 173.261V145.87C198.261 142.628 195.633 140 192.391 140ZM75 50C84.725 50 92.6087 57.8837 92.6087 67.6087V95C92.6087 104.725 84.725 112.609 75 112.609H47.6087C37.8837 112.609 30 104.725 30 95V67.6087C30 57.8837 37.8837 50 47.6087 50H75ZM192.391 50C202.116 50 210 57.8837 210 67.6087V95C210 104.725 202.116 112.609 192.391 112.609H125.87C116.145 112.609 108.261 104.725 108.261 95V67.6087C108.261 57.8837 116.145 50 125.87 50H192.391ZM75 61.7391H47.6087C44.3671 61.7391 41.7391 64.3671 41.7391 67.6087V95C41.7391 98.2416 44.3671 100.87 47.6087 100.87H75C78.2416 100.87 80.8696 98.2416 80.8696 95V67.6087C80.8696 64.3671 78.2416 61.7391 75 61.7391ZM192.391 61.7391H125.87C122.628 61.7391 120 64.3671 120 67.6087V95C120 98.2416 122.628 100.87 125.87 100.87H192.391C195.633 100.87 198.261 98.2416 198.261 95V67.6087C198.261 64.3671 195.633 61.7391 192.391 61.7391Z" fill="#0C1E3C"/>
</svg>
