<svg width="240" height="240" viewBox="0 0 240 240" fill="none" xmlns="http://www.w3.org/2000/svg">
<path d="M42.5 40C30.0736 40 20 50.0736 20 62.5V87.5C20 99.9264 30.0736 110 42.5 110H67.5C79.9264 110 90 99.9264 90 87.5V62.5C90 50.0736 79.9264 40 67.5 40H42.5ZM35 62.5C35 58.3579 38.3579 55 42.5 55H67.5C71.6421 55 75 58.3579 75 62.5V87.5C75 91.6421 71.6421 95 67.5 95H42.5C38.3579 95 35 91.6421 35 87.5V62.5ZM112.5 50C108.358 50 105 53.3579 105 57.5C105 61.6421 108.358 65 112.5 65H212.5C216.642 65 220 61.6421 220 57.5C220 53.3579 216.642 50 212.5 50H112.5ZM112.5 80C108.358 80 105 83.3579 105 87.5C105 91.6421 108.358 95 112.5 95H182.5C186.642 95 190 91.6421 190 87.5C190 83.3579 186.642 80 182.5 80H112.5ZM42.5 130C30.0736 130 20 140.074 20 152.5V177.5C20 189.926 30.0736 200 42.5 200H67.5C79.9264 200 90 189.926 90 177.5V152.5C90 140.074 79.9264 130 67.5 130H42.5ZM35 152.5C35 148.358 38.3579 145 42.5 145H67.5C71.6421 145 75 148.358 75 152.5V177.5C75 181.642 71.6421 185 67.5 185H42.5C38.3579 185 35 181.642 35 177.5V152.5ZM112.5 140C108.358 140 105 143.358 105 147.5C105 151.642 108.358 155 112.5 155H212.5C216.642 155 220 151.642 220 147.5C220 143.358 216.642 140 212.5 140H112.5ZM112.5 170C108.358 170 105 173.358 105 177.5C105 181.642 108.358 185 112.5 185H182.5C186.642 185 190 181.642 190 177.5C190 173.358 186.642 170 182.5 170H112.5Z" fill="#0C1E3C"/>
</svg>
