<svg fill="none" height="55" viewBox="0 0 55 55" width="55" xmlns="http://www.w3.org/2000/svg"><g stroke="#3683fc"><circle cx="27.5" cy="27.5" r="24.5" stroke-opacity=".1" stroke-width="6"/><g stroke-linecap="round" stroke-width="5"><path d="m3 27.5c0 3.2174.63371 6.4033 1.86495 9.3757 1.23124 2.9725 3.0359 5.6734 5.31095 7.9484 2.275 2.2751 4.9759 4.0797 7.9484 5.3109 2.9724 1.2313 6.1583 1.865 9.3757 1.865"/><path d="m27.5 52c3.2174 0 6.4033-.6337 9.3757-1.8649 2.9725-1.2313 5.6734-3.0359 7.9484-5.311 2.2751-2.275 4.0797-4.9759 5.3109-7.9484 1.2313-2.9724 1.865-6.1583 1.865-9.3757"/><path d="m52 27.5c0-3.2174-.6337-6.4033-1.8649-9.3757-1.2313-2.9725-3.0359-5.6734-5.311-7.9484-2.275-2.27505-4.9759-4.07971-7.9484-5.31095-2.9724-1.23124-6.1583-1.86495-9.3757-1.86495"/></g></g></svg>