<svg width="36" height="36" viewBox="0 0 36 36" fill="none" xmlns="http://www.w3.org/2000/svg">
<path fill-rule="evenodd" clip-rule="evenodd" d="M15.192 8.16C14.5955 8.16 14.112 8.64353 14.112 9.24V11.1545H21.888V9.24C21.888 8.64353 21.4045 8.16 20.808 8.16H15.192ZM24.048 11.1545V9.24C24.048 7.4506 22.5974 6 20.808 6H15.192C13.4026 6 11.952 7.4506 11.952 9.24V11.1545H8.82C6.43413 11.1545 4.5 13.0887 4.5 15.4745V26.52C4.5 28.9059 6.43413 30.84 8.82 30.84H27.18C29.5659 30.84 31.5 28.9059 31.5 26.52V15.4745C31.5 13.0887 29.5659 11.1545 27.18 11.1545H24.048ZM8.82 13.3145C7.62707 13.3145 6.66 14.2816 6.66 15.4745V26.52C6.66 27.7129 7.62707 28.68 8.82 28.68H27.18C28.3729 28.68 29.34 27.7129 29.34 26.52V15.4745C29.34 14.2816 28.3729 13.3145 27.18 13.3145H8.82ZM18.54 16.8C19.1365 16.8 19.62 17.2835 19.62 17.88V20.04H21.78C22.3765 20.04 22.86 20.5235 22.86 21.12C22.86 21.7165 22.3765 22.2 21.78 22.2H19.62V24.36C19.62 24.9565 19.1365 25.44 18.54 25.44C17.9435 25.44 17.46 24.9565 17.46 24.36V22.2H15.3C14.7035 22.2 14.22 21.7165 14.22 21.12C14.22 20.5235 14.7035 20.04 15.3 20.04H17.46V17.88C17.46 17.2835 17.9435 16.8 18.54 16.8Z" fill="#3683FC"/>
</svg>
