<svg width="36" height="36" viewBox="0 0 36 36" fill="none" xmlns="http://www.w3.org/2000/svg">
<path fill-rule="evenodd" clip-rule="evenodd" d="M5.85 4.5C6.59558 4.5 7.2 5.10442 7.2 5.85L7.2 27.45C7.2 28.1956 7.80442 28.8 8.55 28.8H30.15C30.8956 28.8 31.5 29.4044 31.5 30.15C31.5 30.8956 30.8956 31.5 30.15 31.5H8.55C6.31325 31.5 4.5 29.6868 4.5 27.45L4.5 5.85C4.5 5.10442 5.10442 4.5 5.85 4.5ZM19.35 8.55C20.0956 8.55 20.7 9.15442 20.7 9.9V23.4C20.7 24.1456 20.0956 24.75 19.35 24.75C18.6044 24.75 18 24.1456 18 23.4L18 9.9C18 9.15442 18.6044 8.55 19.35 8.55ZM26.1 12.6C26.8456 12.6 27.45 13.2044 27.45 13.95V23.4C27.45 24.1456 26.8456 24.75 26.1 24.75C25.3544 24.75 24.75 24.1456 24.75 23.4L24.75 13.95C24.75 13.2044 25.3544 12.6 26.1 12.6ZM12.6 13.95C13.3456 13.95 13.95 14.5544 13.95 15.3L13.95 23.4C13.95 24.1456 13.3456 24.75 12.6 24.75C11.8544 24.75 11.25 24.1456 11.25 23.4L11.25 15.3C11.25 14.5544 11.8544 13.95 12.6 13.95Z" fill="#3683FC"/>
</svg>
