<svg fill="none" height="25" viewBox="0 0 24 25" width="24" xmlns="http://www.w3.org/2000/svg" xmlns:xlink="http://www.w3.org/1999/xlink"><linearGradient id="a" gradientUnits="userSpaceOnUse" x1="9.15983" x2="68.0997" y1="-35.5469" y2="-12.505"><stop offset=".0728443" stop-color="#3683fc"/><stop offset=".965938" stop-color="#21355c"/></linearGradient><path d="m13.5 16.5c.4142 0 .75.3358.75.75s-.3358.75-.75.75h-3c-.4142 0-.75-.3358-.75-.75s.3358-.75.75-.75zm3-5c.4142 0 .75.3358.75.75s-.3358.75-.75.75h-9c-.41421 0-.75-.3358-.75-.75s.33579-.75.75-.75zm3-5c.4142 0 .75.33579.75.75s-.3358.75-.75.75h-15c-.41421 0-.75-.33579-.75-.75s.33579-.75.75-.75z" fill="url(#a)"/></svg>