<svg width="16" height="14" viewBox="0 0 16 14" fill="none" xmlns="http://www.w3.org/2000/svg">
<path d="M12.0797 4.79645C12.0351 3.88761 11.4802 3.23991 10.5789 3.23991C9.63829 3.23991 9.07507 3.94516 9.07507 4.91645V7.70196L8.90183 7.64883C8.10572 7.41638 7.48202 7.40314 7.01295 7.63767C6.37572 7.95627 6.04816 8.52797 6.06459 9.2689C6.06872 9.45504 6.17573 9.62359 6.34247 9.70653L7.92171 10.4922L7.98681 10.5271L8.04956 10.5662L9.30854 11.4055L9.43779 11.4982C9.73126 11.7245 9.96685 12.0183 10.1238 12.3557L10.1432 12.3975L10.1962 12.501C10.4984 13.0382 11.1023 13.3405 11.7203 13.2518L13.3365 13.0199L13.4469 12.9998C13.9923 12.8796 14.43 12.465 14.5757 11.9195L15.2763 9.29751L15.3047 9.17754C15.5379 8.05746 14.8574 6.93724 13.7384 6.63829C13.6814 6.62305 13.6238 6.61015 13.5658 6.59966L12.0826 6.33032V4.91645L12.0797 4.79645ZM10.0802 4.82146C10.1027 4.42619 10.2714 4.24243 10.5789 4.24243C10.9099 4.24243 11.0801 4.45554 11.0801 4.91645V6.74877L11.0852 6.82028C11.1154 7.03094 11.2773 7.20297 11.4918 7.24194L13.4334 7.59549L13.4796 7.60686C14.1037 7.77361 14.4744 8.41462 14.3077 9.03872L13.6072 11.6607L13.5827 11.731C13.5142 11.889 13.368 12.0026 13.1941 12.0275L11.5779 12.2594L11.5053 12.2646C11.313 12.2641 11.1351 12.1529 11.0522 11.9747L11.0327 11.9329L10.9513 11.7697C10.6939 11.2875 10.3209 10.8755 9.86466 10.5714L8.60566 9.73207L8.48912 9.65955L8.36823 9.59459L7.09487 8.96113L7.12056 8.88126C7.18043 8.72881 7.29152 8.61927 7.46129 8.53439C7.75354 8.38822 8.40905 8.48219 9.38526 8.88467C9.71522 9.02074 10.0776 8.7782 10.0776 8.4213V4.91645L10.0802 4.82146Z" fill="#21355C"/>
<path d="M3.84262 2.05714L2.36116 3.54067L8.43443 3.54067C8.40244 3.70841 8.38603 3.88579 8.38603 4.07089V4.54319L2.36116 4.54319L3.84262 6.0267L3.89114 6.08292C4.03657 6.27915 4.02046 6.55763 3.84262 6.73559C3.64706 6.93134 3.32993 6.93134 3.1343 6.73559L0.797093 4.39635L0.748571 4.34015C0.603139 4.14392 0.619246 3.86542 0.797093 3.68751L3.1343 1.34829L3.19051 1.29977C3.3866 1.15414 3.66484 1.17031 3.84262 1.34829L3.89114 1.4045C4.03657 1.60073 4.02046 1.87923 3.84262 2.05714Z" fill="#21355C"/>
<path d="M10.6784 0.700195C12.5224 0.700195 14.0173 2.19636 14.0173 4.04193C14.0173 4.77993 13.7802 5.45841 13.3754 6.01134L12.4414 5.84259V5.57913L12.5135 5.49071C12.828 5.09229 13.0156 4.58905 13.0156 4.04193C13.0156 2.75001 11.9692 1.70272 10.6784 1.70272C9.8135 1.70272 9.05831 2.1729 8.65411 2.87185L7.54994 2.87172C8.02379 1.60327 9.24572 0.700195 10.6784 0.700195Z" fill="#21355C"/>
</svg>
