<svg width="36" height="36" viewBox="0 0 36 36" fill="none" xmlns="http://www.w3.org/2000/svg">
<path d="M17.2771 12.0579C17.6371 11.5774 18.3575 11.5773 18.7177 12.0577L26.8144 22.86C27.259 23.4533 26.8357 24.2998 26.0943 24.2998H9.90509C9.16369 24.2998 8.74028 23.4534 9.1848 22.8602L17.2771 12.0579ZM20.1579 10.9781C19.0777 9.53701 16.9163 9.5373 15.8365 10.9787L7.74419 21.7809C6.41064 23.5611 7.68087 26.0998 9.90509 26.0998L26.0943 26.0998C28.3187 26.0998 29.589 23.5604 28.2546 21.7803L20.1579 10.9781Z" fill="#FC5A5A"/>
<path d="M17.2771 12.0579C17.6371 11.5774 18.3575 11.5773 18.7177 12.0577L26.8144 22.86C27.259 23.4533 26.8357 24.2998 26.0943 24.2998H9.90509C9.16369 24.2998 8.74028 23.4534 9.1848 22.8602L17.2771 12.0579Z" fill="#FC5A5A"/>
</svg>
