<svg width="240" height="240" viewBox="0 0 240 240" fill="none" xmlns="http://www.w3.org/2000/svg">
<path d="M98.3585 20.3398C99.4837 20.7226 100.583 21.1779 101.649 21.7028L114.477 28.0183C117.958 29.7323 122.038 29.7323 125.519 28.0183L138.347 21.7028C151.972 14.9942 168.457 20.6018 175.165 34.2276L175.9 35.8509L176.528 37.5183L181.133 51.0543C182.383 54.728 185.268 57.613 188.941 58.8627L202.477 63.4673C216.856 68.3585 224.547 83.9799 219.656 98.3585C219.273 99.4837 218.818 100.583 218.293 101.649L211.977 114.477C210.263 117.958 210.263 122.038 211.977 125.519L218.293 138.347C225.002 151.972 219.394 168.457 205.768 175.165C204.702 175.69 203.603 176.146 202.477 176.528L188.941 181.133C185.268 182.383 182.383 185.268 181.133 188.941L176.528 202.477C171.637 216.856 156.016 224.547 141.637 219.656C140.512 219.273 139.413 218.818 138.347 218.293L125.519 211.977C122.038 210.263 117.958 210.263 114.477 211.977L101.649 218.293C88.0233 225.002 71.5389 219.394 64.8303 205.768C64.3053 204.702 63.85 203.603 63.4673 202.477L58.8627 188.941C57.613 185.268 54.728 182.383 51.0543 181.133L37.5183 176.528C23.1396 171.637 15.4486 156.016 20.3398 141.637C20.7226 140.512 21.1779 139.413 21.7028 138.347L28.0183 125.519C29.7323 122.038 29.7323 117.958 28.0183 114.477L21.7028 101.649C14.9942 88.0233 20.6018 71.5389 34.2276 64.8303C35.2939 64.3053 36.3931 63.85 37.5183 63.4673L51.0543 58.8627C54.728 57.613 57.613 54.728 58.8627 51.0543L63.4673 37.5183C68.3585 23.1396 83.9799 15.4486 98.3585 20.3398ZM77.6681 42.349L73.0635 55.885C70.3142 63.9672 63.9672 70.3142 55.885 73.0635L42.349 77.6681C41.8376 77.8421 41.338 78.0491 40.8533 78.2877C34.6597 81.337 32.1108 88.8299 35.1602 95.0235L41.4757 107.851C45.2465 115.51 45.2465 124.486 41.4757 132.145L35.1602 144.972C34.9216 145.457 34.7146 145.957 34.5406 146.468C32.3173 153.004 35.8133 160.104 42.349 162.328L55.885 166.932C63.9672 169.682 70.3142 176.029 73.0635 184.111L77.6681 197.647C77.8421 198.158 78.0491 198.658 78.2877 199.142C81.337 205.336 88.8299 207.885 95.0235 204.836L107.851 198.52C115.51 194.749 124.486 194.749 132.145 198.52L144.972 204.836C145.457 205.074 145.957 205.281 146.468 205.455C153.004 207.678 160.104 204.182 162.328 197.647L166.932 184.111C169.682 176.029 176.029 169.682 184.111 166.932L197.647 162.328C198.158 162.154 198.658 161.947 199.142 161.708C205.336 158.659 207.885 151.166 204.836 144.972L198.52 132.145C194.749 124.486 194.749 115.51 198.52 107.851L204.836 95.0235C205.074 94.5389 205.281 94.0392 205.455 93.5278C207.678 86.992 204.182 79.8914 197.647 77.6681L184.111 73.0635C176.029 70.3142 169.682 63.9672 166.932 55.885L162.328 42.349L162.042 41.5911L161.708 40.8533L161.086 39.7352C157.727 34.363 150.779 32.3014 144.972 35.1602L132.145 41.4757C124.486 45.2465 115.51 45.2465 107.851 41.4757L95.0235 35.1602C94.5389 34.9216 94.0392 34.7146 93.5278 34.5406C86.992 32.3173 79.8914 35.8133 77.6681 42.349ZM100.502 143.887L154.695 89.6946C157.624 86.7657 162.372 86.7657 165.301 89.6946C167.964 92.3573 168.206 96.5239 166.027 99.46L165.301 100.301L105.301 160.301C102.443 163.16 97.8995 163.203 94.9875 160.58L94.2362 159.799L69.2362 129.799C66.5845 126.617 67.0144 121.888 70.1965 119.236C73.0893 116.826 77.2607 116.962 79.9876 119.397L80.7595 120.197L100.502 143.887L154.695 89.6946L100.502 143.887Z" fill="#212121"/>
</svg>
